<svg width="399" height="344" viewBox="0 0 399 344" fill="none" xmlns="http://www.w3.org/2000/svg">
<path d="M364.655 43.8519C368.837 49.2432 368.676 57.9468 364.206 69.4709C359.763 80.9271 351.182 94.8405 339.127 110.304C315.026 141.219 277.18 178.148 231.296 213.739C185.412 249.331 140.231 276.804 104.294 292.46C86.318 300.291 70.7079 305.142 58.5066 306.596C46.233 308.059 37.7626 306.052 33.5807 300.66C29.3988 295.269 29.5606 286.565 34.0302 275.041C38.4734 263.585 47.0537 249.672 59.109 234.208C83.21 203.293 121.056 166.364 166.94 130.773C212.825 95.1816 258.005 67.708 293.942 52.0523C311.918 44.2213 327.528 39.3708 339.73 37.9161C352.003 36.4529 360.473 38.4606 364.655 43.8519Z" stroke="black" stroke-opacity="0.4" stroke-width="2"/>
<path d="M311.662 32.0001L311.818 32.608C312.843 36.5978 313.356 38.5926 314.508 40.1565C315.072 40.9207 315.741 41.6007 316.496 42.1762C318.041 43.354 320.027 43.8984 324 44.9871V44.9871L323.698 45.0698C319.859 46.1221 317.939 46.6482 316.428 47.7725C315.672 48.3355 314.999 49.0027 314.429 49.7542C313.291 51.255 312.748 53.17 311.662 57.0001V57.0001V57.0001C310.591 53.2237 310.056 51.3354 308.944 49.8515C308.34 49.0446 307.617 48.3338 306.799 47.7431C305.297 46.6568 303.4 46.1538 299.605 45.1476L299 44.9871V44.9871C303.224 43.8671 305.336 43.3071 306.957 42.0342C307.606 41.5247 308.189 40.9367 308.693 40.2839C309.954 38.6531 310.497 36.5369 311.584 32.3044L311.662 32.0001Z" fill="black"/>
<path d="M99.7532 273L102.449 283.497C103.342 286.974 106.03 289.705 109.492 290.654L119 293.26L109.332 295.909C105.956 296.835 103.31 299.458 102.355 302.826L99.7532 312L97.1666 302.878C96.2035 299.482 93.5212 296.845 90.109 295.94L80 293.26L89.9485 290.622C93.4466 289.694 96.1707 286.949 97.071 283.443L99.7532 273Z" fill="black"/>
</svg>
