<svg width="169" height="57" viewBox="0 0 169 57" fill="none" xmlns="http://www.w3.org/2000/svg">
<path d="M72.4523 18.7995L66.3829 5.04321H67.9492L73.627 17.9938H72.7655L78.4825 5.04321H79.9509L73.8815 18.7995H72.4523Z" fill="black"/>
<path d="M79.3265 18.7995L85.5916 5.04321H87.0209L93.286 18.7995H91.7589L86.0028 5.88824H86.5901L80.8341 18.7995H79.3265ZM81.7934 15.1246L82.2241 13.9455H90.1926L90.6233 15.1246H81.7934Z" fill="black"/>
<path d="M95.5532 18.7995V5.04321H97.002V17.5418H104.677V18.7995H95.5532Z" fill="black"/>
<path d="M108.375 11.1943H115.619V12.4323H108.375V11.1943ZM108.531 17.5418H116.774V18.7995H107.082V5.04321H116.48V6.30093H108.531V17.5418Z" fill="black"/>
<path d="M120.179 18.7995V5.04321H125.309C126.471 5.04321 127.469 5.23318 128.304 5.61312C129.14 5.97995 129.779 6.5171 130.223 7.22457C130.68 7.91894 130.908 8.76397 130.908 9.75967C130.908 10.7292 130.68 11.5676 130.223 12.2751C129.779 12.9695 129.14 13.5066 128.304 13.8866C127.469 14.2534 126.471 14.4368 125.309 14.4368H120.982L121.628 13.7687V18.7995H120.179ZM129.538 18.7995L126.014 13.808H127.58L131.124 18.7995H129.538ZM121.628 13.8866L120.982 13.1987H125.27C126.64 13.1987 127.678 12.8974 128.383 12.2948C129.101 11.6921 129.46 10.8471 129.46 9.75967C129.46 8.65916 129.101 7.80758 128.383 7.20492C127.678 6.60226 126.64 6.30093 125.27 6.30093H120.982L121.628 5.61312V13.8866Z" fill="black"/>
<path d="M134.328 18.7995V5.04321H135.777V18.7995H134.328Z" fill="black"/>
<path d="M140.236 18.7995V5.04321H141.685V18.7995H140.236Z" fill="black"/>
<path d="M143.951 18.7995L150.216 5.04321H151.645L157.911 18.7995H156.383L150.627 5.88824H151.215L145.459 18.7995H143.951ZM146.418 15.1246L146.849 13.9455H154.817L155.248 15.1246H146.418Z" fill="black"/>
<path d="M74.5472 41.0258C73.5161 41.0258 72.5567 40.8555 71.6691 40.5149C70.7946 40.1611 70.0311 39.6698 69.3785 39.041C68.7389 38.399 68.2364 37.6588 67.8709 36.8203C67.5185 35.9687 67.3423 35.0385 67.3423 34.0297C67.3423 33.0209 67.5185 32.0973 67.8709 31.2588C68.2364 30.4072 68.7389 29.667 69.3785 29.0382C70.0311 28.3962 70.7946 27.9049 71.6691 27.5643C72.5437 27.2105 73.503 27.0337 74.5472 27.0337C75.5783 27.0337 76.5312 27.2105 77.4057 27.5643C78.2802 27.9049 79.0372 28.3897 79.6768 29.0185C80.3294 29.6474 80.8319 30.3876 81.1843 31.2392C81.5498 32.0908 81.7325 33.0209 81.7325 34.0297C81.7325 35.0385 81.5498 35.9687 81.1843 36.8203C80.8319 37.6719 80.3294 38.4121 79.6768 39.041C79.0372 39.6698 78.2802 40.1611 77.4057 40.5149C76.5312 40.8555 75.5783 41.0258 74.5472 41.0258ZM74.5472 39.7288C75.3695 39.7288 76.1265 39.5912 76.8183 39.3161C77.5231 39.0279 78.1301 38.6283 78.6391 38.1173C79.1612 37.5933 79.5658 36.9906 79.853 36.3094C80.1401 35.615 80.2837 34.8551 80.2837 34.0297C80.2837 33.2044 80.1401 32.451 79.853 31.7698C79.5658 31.0754 79.1612 30.4728 78.6391 29.9618C78.1301 29.4378 77.5231 29.0382 76.8183 28.763C76.1265 28.4748 75.3695 28.3307 74.5472 28.3307C73.7249 28.3307 72.9613 28.4748 72.2565 28.763C71.5517 29.0382 70.9382 29.4378 70.4161 29.9618C69.9071 30.4728 69.5025 31.0754 69.2022 31.7698C68.9151 32.451 68.7715 33.2044 68.7715 34.0297C68.7715 34.842 68.9151 35.5953 69.2022 36.2897C69.5025 36.9841 69.9071 37.5933 70.4161 38.1173C70.9382 38.6283 71.5517 39.0279 72.2565 39.3161C72.9613 39.5912 73.7249 39.7288 74.5472 39.7288Z" fill="black"/>
<path d="M88.7586 41.0258C87.7405 41.0258 86.7616 40.862 85.8218 40.5345C84.8951 40.1939 84.1772 39.7615 83.6682 39.2375L84.236 38.1173C84.7189 38.589 85.365 38.9886 86.1743 39.3161C86.9966 39.6305 87.858 39.7877 88.7586 39.7877C89.6201 39.7877 90.3184 39.6829 90.8535 39.4733C91.4017 39.2506 91.7998 38.9558 92.0478 38.589C92.3089 38.2221 92.4394 37.816 92.4394 37.3706C92.4394 36.8334 92.2828 36.4011 91.9695 36.0735C91.6693 35.746 91.2712 35.4905 90.7752 35.3071C90.2792 35.1106 89.731 34.9403 89.1306 34.7962C88.5302 34.6521 87.9298 34.5014 87.3294 34.3442C86.729 34.1739 86.1743 33.9511 85.6652 33.676C85.1692 33.4009 84.7646 33.0406 84.4513 32.5952C84.1511 32.1366 84.001 31.5405 84.001 30.8068C84.001 30.1256 84.1772 29.5033 84.5297 28.9399C84.8951 28.3634 85.4499 27.9049 86.1938 27.5643C86.9378 27.2105 87.8906 27.0337 89.0523 27.0337C89.8224 27.0337 90.586 27.145 91.343 27.3678C92.1 27.5774 92.7527 27.8722 93.3009 28.2521L92.8114 29.4115C92.224 29.0185 91.5975 28.7303 90.9318 28.5469C90.2792 28.3635 89.6462 28.2717 89.0327 28.2717C88.2104 28.2717 87.5317 28.3831 86.9966 28.6058C86.4614 28.8285 86.0633 29.1299 85.8023 29.5098C85.5543 29.8766 85.4303 30.2959 85.4303 30.7675C85.4303 31.3047 85.5804 31.737 85.8806 32.0646C86.1938 32.3921 86.5985 32.6476 87.0944 32.831C87.6035 33.0144 88.1582 33.1782 88.7586 33.3223C89.359 33.4664 89.9529 33.6236 90.5403 33.7939C91.1407 33.9642 91.6889 34.187 92.1849 34.4621C92.6939 34.7241 93.0985 35.0778 93.3987 35.5233C93.712 35.9687 93.8686 36.5517 93.8686 37.2723C93.8686 37.9405 93.6859 38.5628 93.3204 39.1392C92.955 39.7026 92.3937 40.1611 91.6367 40.5149C90.8927 40.8555 89.9333 41.0258 88.7586 41.0258Z" fill="black"/>
<path d="M94.8326 40.9079L101.098 27.1516H102.527L108.792 40.9079H107.265L101.509 27.9966H102.096L96.3401 40.9079H94.8326ZM97.2995 37.233L97.7302 36.0539H105.699L106.129 37.233H97.2995Z" fill="black"/>
<path d="M111.059 40.9079V27.1516H116.639C118.101 27.1516 119.38 27.4464 120.477 28.0359C121.586 28.6124 122.447 29.4181 123.061 30.4531C123.674 31.4881 123.981 32.6803 123.981 34.0297C123.981 35.3792 123.674 36.5714 123.061 37.6064C122.447 38.6414 121.586 39.4537 120.477 40.0432C119.38 40.6197 118.101 40.9079 116.639 40.9079H111.059ZM112.508 39.6502H116.561C117.775 39.6502 118.825 39.4144 119.713 38.9427C120.614 38.458 121.312 37.7964 121.808 36.9579C122.304 36.1063 122.552 35.1302 122.552 34.0297C122.552 32.9161 122.304 31.9401 121.808 31.1016C121.312 30.2631 120.614 29.6081 119.713 29.1364C118.825 28.6517 117.775 28.4093 116.561 28.4093H112.508V39.6502Z" fill="black"/>
<path d="M133.186 41.0258C132.155 41.0258 131.202 40.8555 130.328 40.5149C129.453 40.1611 128.696 39.6698 128.057 39.041C127.417 38.4121 126.915 37.6719 126.549 36.8203C126.197 35.9687 126.021 35.0385 126.021 34.0297C126.021 33.0209 126.197 32.0908 126.549 31.2392C126.915 30.3876 127.417 29.6474 128.057 29.0185C128.709 28.3897 129.473 27.9049 130.347 27.5643C131.222 27.2105 132.175 27.0337 133.206 27.0337C134.198 27.0337 135.131 27.204 136.006 27.5446C136.88 27.8722 137.618 28.37 138.218 29.0382L137.298 29.9618C136.737 29.3853 136.117 28.9727 135.438 28.7237C134.759 28.4617 134.028 28.3307 133.245 28.3307C132.423 28.3307 131.659 28.4748 130.954 28.763C130.25 29.0382 129.636 29.4378 129.114 29.9618C128.592 30.4728 128.181 31.0754 127.881 31.7698C127.593 32.451 127.45 33.2044 127.45 34.0297C127.45 34.8551 127.593 35.615 127.881 36.3094C128.181 36.9906 128.592 37.5933 129.114 38.1173C129.636 38.6283 130.25 39.0279 130.954 39.3161C131.659 39.5912 132.423 39.7288 133.245 39.7288C134.028 39.7288 134.759 39.5978 135.438 39.3358C136.117 39.0737 136.737 38.6545 137.298 38.078L138.218 39.0017C137.618 39.6698 136.88 40.1742 136.006 40.5149C135.131 40.8555 134.191 41.0258 133.186 41.0258Z" fill="black"/>
<path d="M151.331 27.1516H152.76V40.9079H151.331V27.1516ZM142.755 40.9079H141.307V27.1516H142.755V40.9079ZM151.468 34.5603H142.599V33.283H151.468V34.5603Z" fill="black"/>
<path d="M155.04 40.9079L161.306 27.1516H162.735L169 40.9079H167.473L161.717 27.9966H162.304L156.548 40.9079H155.04ZM157.507 37.233L157.938 36.0539H165.907L166.337 37.233H157.507Z" fill="black"/>
<path d="M31.6839 47.1573C31.3314 46.1257 30.9821 45.0907 30.6264 44.0591C30.5947 43.9709 30.601 43.8352 30.4613 43.8318C30.112 43.8318 29.9532 44.0591 30.0738 44.3985C30.1056 44.4901 30.1342 44.5783 30.1659 44.6699C31.36 48.1685 32.5509 51.667 33.745 55.1656C33.7767 55.2538 33.799 55.4167 33.8593 55.4065C34.034 55.3794 34.2118 55.3183 34.3643 55.2267C34.4849 55.1554 34.3643 55.0298 34.3357 54.945C33.456 52.3457 32.57 49.7498 31.6839 47.1539V47.1573Z" fill="black"/>
<path d="M51.9583 34.2052C48.3888 33.5332 44.8192 32.8646 41.2529 32.1791C40.8813 32.1078 40.9988 32.3929 40.9385 32.5558C40.8559 32.7696 40.9607 32.8239 41.1449 32.8579C42.5708 33.1192 43.9967 33.3907 45.4226 33.6588C47.5853 34.0661 49.748 34.4733 51.9107 34.884C52.0504 34.9112 52.1202 34.884 52.133 34.7245C52.1393 34.6295 52.1615 34.5344 52.1742 34.4733C52.2377 34.2222 52.0917 34.229 51.9615 34.2052H51.9583Z" fill="black"/>
<path d="M36.8479 16.6546C36.9559 16.8006 37.1147 16.9091 37.2417 17.0245C37.3497 16.9974 37.3846 16.9159 37.4354 16.8514C39.7633 13.8857 42.0911 10.9199 44.4221 7.95748C44.5364 7.81496 44.6062 7.70298 44.4125 7.591C44.2633 7.50277 44.1775 7.20077 43.9298 7.51974C41.6179 10.4855 39.2901 13.4377 36.9718 16.3967C36.9146 16.468 36.7717 16.5494 36.8479 16.6546Z" fill="black"/>
<path d="M40.5656 48.0937C38.8412 45.8982 37.1136 43.7061 35.3987 41.5072C35.1478 41.1882 35.0811 41.5445 34.9414 41.609C34.7699 41.6905 34.789 41.799 34.9097 41.9483C35.4019 42.5524 35.8783 43.1733 36.361 43.7875C38.2124 46.1459 40.0639 48.5043 41.9185 50.8627C41.9725 50.9339 42.0169 51.0968 42.1408 50.9984C42.2805 50.8864 42.4393 50.788 42.5346 50.615C42.4711 50.5301 42.4139 50.4521 42.3568 50.3808C41.7597 49.6207 41.1595 48.8572 40.5625 48.0971L40.5656 48.0937Z" fill="black"/>
<path d="M52.6186 24.7613C52.5836 24.5136 52.5201 24.4287 52.2565 24.483C50.0589 24.914 47.855 25.3213 45.6542 25.7387C44.2886 25.9967 42.9231 26.2546 41.5543 26.5092C41.4463 26.5295 41.3511 26.5431 41.3796 26.6653C41.3923 26.7535 41.405 26.8078 41.4082 26.8587C41.4209 27.1336 41.5067 27.2185 41.7957 27.1574C43.0977 26.8893 44.4093 26.6551 45.7145 26.4107C47.9344 25.9933 50.1542 25.5657 52.3804 25.1652C52.6599 25.1143 52.6535 24.9955 52.6186 24.7647V24.7613Z" fill="black"/>
<path d="M48.4871 43.2041C45.3749 41.2767 42.2595 39.3595 39.1473 37.432C38.9663 37.3201 38.8551 37.2726 38.7408 37.5237C38.6423 37.7408 38.5502 37.8562 38.8329 38.0293C41.9546 39.9363 45.0668 41.8638 48.1791 43.7878C48.2394 43.8251 48.2997 43.8624 48.376 43.9066C48.5475 43.8115 48.5919 43.6147 48.6713 43.4552C48.7666 43.2686 48.5665 43.255 48.4839 43.2041H48.4871Z" fill="black"/>
<path d="M40.0439 21.4323C40.1423 21.5884 40.1772 21.7818 40.4345 21.6088C40.9744 21.2423 41.5396 20.9165 42.0922 20.5772C44.6709 18.9857 47.2528 17.3942 49.8315 15.7993C49.9045 15.7552 50.0061 15.7383 50.0347 15.6161C49.9871 15.5279 49.9268 15.443 49.8886 15.3446C49.7997 15.1071 49.6854 15.0935 49.4917 15.2327C49.2186 15.4295 48.9232 15.589 48.6374 15.7654C45.7983 17.5164 42.9592 19.2741 40.1137 21.0149C39.8883 21.154 39.9359 21.2626 40.0439 21.4357V21.4323Z" fill="black"/>
<path d="M32.4909 13.4953C32.6338 13.5869 32.7989 13.6683 32.9609 13.6819C33.1038 13.6955 33.0943 13.4953 33.1292 13.3867C34.3582 9.78973 35.584 6.18938 36.8099 2.59243C36.8289 2.53135 36.8511 2.47367 36.8797 2.39223C36.8099 2.18523 36.5939 2.21917 36.4478 2.14112C36.2763 2.0495 36.2732 2.22935 36.2414 2.32436C35.8095 3.58669 35.3808 4.84901 34.9489 6.11134C34.1391 8.48668 33.3293 10.862 32.5226 13.2374C32.494 13.3188 32.3988 13.4342 32.4909 13.4953Z" fill="black"/>
<path d="M22.0183 12.4979C22.1295 12.8271 22.2661 12.6812 22.4407 12.6371C22.6535 12.5794 22.6916 12.4878 22.6122 12.257C21.8691 10.1022 21.1355 7.94407 20.4019 5.7859C19.9033 4.31997 19.4079 2.85405 18.9029 1.39151C18.8744 1.30329 18.8839 1.16755 18.7473 1.15398C18.471 1.13362 18.2424 1.38812 18.325 1.62905C19.5603 5.24975 20.7989 8.87045 22.0215 12.4979H22.0183Z" fill="black"/>
<path d="M19.5366 43.1226C18.2981 46.7399 17.0722 50.3606 15.8305 53.9745C15.7511 54.2019 15.7797 54.3003 15.9988 54.3546C16.1672 54.3953 16.3101 54.5548 16.4212 54.2223C17.6439 50.588 18.8856 46.9639 20.1241 43.3364C20.1432 43.2753 20.1654 43.2176 20.1972 43.1192C20.086 42.9699 19.8986 42.9529 19.7399 42.8919C19.5461 42.8172 19.5684 43.031 19.5366 43.126V43.1226Z" fill="black"/>
<path d="M11.0771 30.0581C11.2009 30.0343 11.3311 30.0174 11.2486 29.8239C11.1851 29.6746 11.2994 29.4133 11.0644 29.3861C10.9818 29.3997 10.9437 29.4065 10.9024 29.4133C8.66036 29.8375 6.41511 30.2583 4.17304 30.6826C2.85511 30.9303 1.53718 31.1815 0.219253 31.436C0.133508 31.453 0.0128303 31.4089 0.00330314 31.5854C-0.0221027 32.0164 0.0953994 32.1318 0.482839 32.0571C2.93133 31.5921 5.383 31.134 7.83149 30.669C8.91442 30.4654 9.99417 30.2583 11.0771 30.0547V30.0581Z" fill="black"/>
<path d="M12.4738 8.96167C14.0616 10.9841 15.6495 13.0099 17.2405 15.029C17.2945 15.0968 17.3358 15.2665 17.4628 15.1681C17.6026 15.0561 17.7582 14.9543 17.8535 14.7813C17.8058 14.7202 17.7709 14.6693 17.7296 14.6218C15.3954 11.6492 13.0549 8.68002 10.7303 5.70066C10.508 5.41562 10.4349 5.66672 10.2952 5.75156C10.1142 5.86354 10.1078 5.96195 10.2507 6.14179C11.0002 7.07496 11.7338 8.02171 12.4738 8.96167Z" fill="black"/>
<path d="M15.6465 39.7598C15.4877 39.6546 15.4115 39.4544 15.1861 39.7395C12.8773 42.7087 10.5527 45.6609 8.23119 48.6165C8.17721 48.6843 8.05018 48.7522 8.1264 48.8472C8.23755 48.9931 8.38998 49.1017 8.53606 49.2375C8.60276 49.1628 8.65992 49.1051 8.71073 49.0406C11.0322 46.085 13.3505 43.126 15.6751 40.1704C15.8117 39.9974 15.8561 39.8922 15.6465 39.7564V39.7598Z" fill="black"/>
<path d="M0.787371 22.3792C4.30926 23.0444 7.83115 23.7062 11.3499 24.3748C11.5531 24.4121 11.6547 24.3816 11.6897 24.1338C11.7405 23.7605 11.75 23.7639 11.3594 23.6892C8.54569 23.1598 5.73199 22.6303 2.92147 22.1009C2.18469 21.9617 1.44475 21.826 0.746087 21.6936C0.647639 21.6834 0.593651 21.6699 0.549191 21.7377C0.374526 22.016 0.485676 22.3215 0.787371 22.3792Z" fill="black"/>
<path d="M4.15658 13.3662C7.27198 15.2732 10.3778 17.1973 13.4869 19.1111C13.5758 19.1654 13.6774 19.3181 13.7695 19.2231C13.8902 19.1043 13.9537 18.9245 14.0426 18.7684C14.0172 18.6225 13.8902 18.6021 13.8045 18.5478C10.6891 16.6204 7.5705 14.7032 4.45827 12.7689C4.20739 12.6128 4.16928 12.7622 4.07084 12.9284C3.95968 13.1151 3.92158 13.2237 4.15658 13.3662Z" fill="black"/>
<path d="M12.525 35.5453C12.5981 35.5012 12.6997 35.4842 12.7219 35.3587C12.6394 35.206 12.5663 35.0397 12.4615 34.8972C12.3917 34.8022 12.3186 34.9141 12.2583 34.9515C9.1143 36.8891 5.9735 38.8335 2.82317 40.7609C2.5183 40.9475 2.71837 41.0833 2.78506 41.2631C2.87715 41.5074 2.99148 41.4328 3.15027 41.3344C5.03665 40.1671 6.92304 39.0031 8.8126 37.8392C10.0511 37.0757 11.2897 36.3122 12.525 35.5453Z" fill="black"/>
<path d="M38.5944 18.8161C38.6992 18.9654 38.8199 19.1045 38.9374 19.2504C39.0231 19.1724 39.0866 19.1181 39.147 19.0638C41.6431 16.8242 44.1392 14.5846 46.6417 12.3517C46.8068 12.2058 46.8259 12.1108 46.6703 11.9547C46.5401 11.8258 46.4956 11.5814 46.2257 11.8292C43.7232 14.0925 41.2048 16.3423 38.696 18.5955C38.6357 18.6498 38.5086 18.6905 38.5944 18.8161Z" fill="black"/>
<path d="M30.6237 12.2941C31.1827 8.91092 31.7352 5.52775 32.3037 2.14797C32.3513 1.86972 32.2783 1.79167 32.0338 1.73059C31.6654 1.63558 31.7035 1.90705 31.6685 2.11743C31.2081 4.8898 30.7508 7.66217 30.2934 10.4345C30.1855 11.0962 30.0775 11.7579 29.9632 12.4739C29.9536 12.518 29.9791 12.5791 30.0743 12.6165C30.4459 12.7692 30.557 12.7081 30.6269 12.2941H30.6237Z" fill="black"/>
<path d="M41.0651 23.6961C40.9857 23.7267 40.8047 23.7097 40.8905 23.9065C40.9603 24.0694 40.9603 24.2765 41.1191 24.3885C41.1826 24.3613 41.2303 24.341 41.2747 24.324C44.2885 23.1531 47.2991 21.9754 50.316 20.8113C50.6368 20.6891 50.424 20.5262 50.3954 20.3701C50.3605 20.1766 50.3002 20.0884 50.0747 20.18C48.7853 20.6959 47.4865 21.1914 46.1908 21.6971C44.4822 22.3623 42.7737 23.0241 41.0683 23.6927L41.0651 23.6961Z" fill="black"/>
<path d="M24.758 12.1786C24.9231 12.1853 25.1041 12.1582 25.2502 12.0801C25.3518 12.0259 25.2725 11.8664 25.2534 11.7544C24.8628 9.37904 24.469 7.00709 24.0784 4.63175C23.9132 3.6341 23.7544 2.63646 23.5861 1.63882C23.5703 1.53362 23.5798 1.38092 23.4051 1.41485C23.0082 1.40807 22.9351 1.49629 22.9986 1.88992C23.3448 4.00059 23.6878 6.11464 24.0371 8.2253C24.2403 9.4537 24.4404 10.6821 24.65 11.9105C24.6659 12.0055 24.6373 12.1718 24.758 12.1786Z" fill="black"/>
<path d="M35.0087 15.0221C35.1802 15.1205 35.285 15.2053 35.4247 14.944C37.0126 11.9816 38.6164 9.02603 40.2138 6.06703C40.2487 6.00255 40.2804 5.93808 40.3217 5.86003C40.2011 5.70394 40.0327 5.63268 39.8771 5.55124C39.7374 5.47659 39.7247 5.64965 39.6834 5.72769C38.0828 8.6833 36.4886 11.6423 34.8817 14.5945C34.7483 14.8422 34.8309 14.9135 35.0119 15.0187L35.0087 15.0221Z" fill="black"/>
<path d="M29.6261 54.5241C29.0799 51.2021 28.5305 47.88 27.9874 44.5579C27.9271 44.1846 27.7143 44.4357 27.5777 44.4255C27.4317 44.4154 27.3237 44.4527 27.365 44.6902C27.6698 46.4751 27.9556 48.2634 28.251 50.0517C28.5019 51.5652 28.7591 53.0786 28.9973 54.592C29.0322 54.8194 29.0989 54.8872 29.3022 54.8126C29.3847 54.782 29.4768 54.7753 29.5657 54.7549C29.6356 54.7379 29.6674 54.6972 29.6451 54.6158C29.6388 54.5852 29.6293 54.5547 29.6261 54.5208V54.5241Z" fill="black"/>
<path d="M36.1212 48.5688C35.1336 46.7364 34.1459 44.9074 33.1551 43.0784C33.1043 42.9834 33.0789 42.8544 32.9487 42.8137C32.8058 42.9053 32.6375 42.9766 32.5231 43.1022C32.4215 43.2175 32.5676 43.3329 32.6216 43.4347C34.1618 46.2953 35.7084 49.1491 37.2454 52.0097C37.3534 52.2133 37.4423 52.2303 37.6043 52.0979C37.7472 51.9792 37.979 51.9656 37.7948 51.6466C37.22 50.6354 36.677 49.6004 36.1212 48.5722V48.5688Z" fill="black"/>
<path d="M41.1443 42.9766C39.8899 41.85 38.6323 40.7234 37.3779 39.6002C37.3302 39.5561 37.2794 39.4509 37.2096 39.5221C37.0889 39.6477 36.9523 39.78 36.892 39.9395C36.8348 40.0922 37.0222 40.1533 37.1143 40.2381C39.4389 42.3284 41.7667 44.4154 44.0977 46.4989C44.1613 46.5566 44.2216 46.7194 44.3359 46.6109C44.4661 46.4853 44.5677 46.3258 44.6916 46.1697C44.5963 46.0781 44.5169 46 44.4344 45.9254C43.3387 44.9447 42.2431 43.9606 41.1507 42.98L41.1443 42.9766Z" fill="black"/>
<path d="M22.2459 43.8963C22.0554 43.8624 22.0713 44.0185 22.049 44.1373C21.5187 47.3541 20.9947 50.571 20.4548 53.7879C20.4167 54.0153 20.4802 54.0865 20.6644 54.0899C20.8232 54.0899 21.0201 54.2698 21.0804 53.9067C21.5917 50.7305 22.1189 47.5544 22.6397 44.3816C22.7064 43.9642 22.6492 43.8997 22.2459 43.8963Z" fill="black"/>
<path d="M48.703 38.1349C45.9464 37.059 43.1899 35.9899 40.4333 34.9107C40.2079 34.8224 40.1317 34.8699 40.0491 35.1007C39.957 35.362 39.9633 35.5148 40.2523 35.5657C40.3286 35.5793 40.4016 35.6234 40.4778 35.6505C43.1708 36.6958 45.8607 37.7446 48.5537 38.7865C48.6363 38.817 48.7411 38.946 48.8173 38.8238C48.903 38.6847 48.938 38.5082 49.0047 38.3351C48.9697 38.1722 48.8109 38.179 48.7061 38.1383L48.703 38.1349Z" fill="black"/>
<path d="M17.845 41.6975C17.7179 41.5821 17.5655 41.4701 17.4099 41.4294C17.2765 41.3955 17.2511 41.5923 17.1971 41.6941C15.7109 44.4359 14.2246 47.1845 12.7479 49.9298C12.7003 50.018 12.5574 50.1266 12.6622 50.2318C12.7829 50.3505 12.948 50.4218 13.0909 50.51C13.2116 50.4693 13.2338 50.3539 13.2814 50.2657C13.9674 49 14.6502 47.7343 15.3361 46.4685C16.1491 44.9619 16.9653 43.4553 17.7751 41.9452C17.8164 41.8706 17.9275 41.7755 17.845 41.7009V41.6975Z" fill="black"/>
<path d="M3.88764 18.4158C6.6537 19.4747 9.41024 20.5539 12.1731 21.6196C12.2779 21.6603 12.4177 21.847 12.5256 21.6264C12.5923 21.4974 12.6241 21.3481 12.6749 21.2022C12.6336 21.0325 12.4748 21.0426 12.3668 20.9985C9.61666 19.9227 6.86647 18.8604 4.11946 17.7777C3.86223 17.6759 3.81142 17.7879 3.7479 17.9915C3.68756 18.1816 3.6177 18.3106 3.89081 18.4158H3.88764Z" fill="black"/>
<path d="M11.3243 32.2503C9.63162 32.9325 7.92942 33.5807 6.23041 34.2425C5.21735 34.6362 4.20111 35.0299 3.18805 35.427C3.10548 35.461 2.95622 35.4711 3.02291 35.6273C3.0896 35.7936 3.0896 36.0006 3.24204 36.1126C3.3119 36.0854 3.35954 36.0685 3.40718 36.0481C6.11925 34.9926 8.83133 33.9337 11.5466 32.885C11.7371 32.8103 11.8133 32.739 11.7117 32.5252C11.6292 32.3521 11.6514 32.1214 11.3243 32.2503Z" fill="black"/>
<path d="M14.1065 37.8153C13.9795 37.6592 13.8778 37.493 13.7413 37.3776C13.6397 37.2928 13.573 37.4489 13.5031 37.5099C12.8489 38.0902 12.1979 38.6739 11.5469 39.2575C10.0161 40.6284 8.48862 42.0061 6.94839 43.3703C6.73244 43.5637 6.85629 43.6655 6.9738 43.791C7.06907 43.8894 7.10718 44.1168 7.33265 43.9132C9.53661 41.9213 11.7501 39.9396 13.9636 37.9545C14.008 37.9137 14.0493 37.873 14.1065 37.8153Z" fill="black"/>
<path d="M16.819 8.53077C17.7209 10.2037 18.626 11.8766 19.5311 13.5495C19.5724 13.6276 19.5883 13.7938 19.7343 13.7192C19.8899 13.6378 20.0329 13.5326 20.1853 13.4342C20.1408 13.3527 20.1186 13.3052 20.0932 13.2611C18.6768 10.638 17.2541 8.01498 15.8441 5.38513C15.6662 5.05258 15.5455 5.33762 15.3995 5.38513C15.2089 5.4496 15.2026 5.5548 15.3042 5.73465C15.8187 6.66103 16.3172 7.59759 16.8222 8.53077H16.819Z" fill="black"/>
<path d="M8.98079 11.3168C11.0545 13.1831 13.1346 15.0427 15.2052 16.9124C15.3894 17.0787 15.4752 17.0413 15.5958 16.8615C15.7038 16.6986 15.8531 16.6036 15.6117 16.3898C13.5189 14.5337 11.4356 12.6605 9.35235 10.7908C9.30789 10.7501 9.26025 10.7093 9.18721 10.6415C9.07288 10.7874 8.94585 10.9231 8.85058 11.0792C8.76484 11.215 8.9141 11.2557 8.98079 11.3168Z" fill="black"/>
<path d="M27.8899 12.1176C28.0042 12.0837 27.947 11.9073 27.947 11.7987C27.947 7.98116 27.947 4.16364 27.9534 0.346122C27.9534 0.0848337 27.8994 0 27.6422 0C27.3945 0 27.3278 0.0712603 27.3278 0.339335C27.3373 2.25318 27.3341 4.16703 27.3341 6.08088C27.3341 7.99473 27.3341 9.90858 27.3341 11.8224C27.3341 11.9242 27.2833 12.0837 27.3849 12.1143C27.5437 12.1584 27.7311 12.1652 27.8867 12.1176H27.8899Z" fill="black"/>
<path d="M10.9564 26.5426C8.03476 26.5562 5.10991 26.5562 2.18823 26.5426C1.90242 26.5426 1.92782 26.692 1.91829 26.8924C1.90877 27.1165 1.94688 27.2082 2.18823 27.2082C3.63954 27.1946 5.09085 27.2014 6.54216 27.2014C8.01253 27.2014 9.48607 27.1946 10.9564 27.2082C11.201 27.2082 11.2359 27.1131 11.2264 26.8924C11.2168 26.6852 11.2359 26.5426 10.9533 26.5426H10.9564Z" fill="black"/>
<path d="M50.7074 30.0349C50.9297 30.0349 50.9805 29.9568 50.9615 29.7429C50.9424 29.5527 51.0186 29.3625 50.6947 29.3659C49.2021 29.3863 47.7127 29.3761 46.2201 29.3761C44.7275 29.3761 43.1968 29.3863 41.6852 29.3659C41.4025 29.3625 41.4184 29.5017 41.4152 29.7055C41.4152 29.9059 41.3993 30.0349 41.6661 30.0349C44.6799 30.0247 47.6905 30.0247 50.7042 30.0349H50.7074Z" fill="black"/>
<path d="M25.302 44.7921C25.302 44.6869 25.2956 44.5783 25.2925 44.4731C24.8193 44.2864 24.6923 44.3645 24.6923 44.8464C24.6923 48.6333 24.6923 52.4203 24.6923 56.2039C24.6923 56.3125 24.6319 56.438 24.7431 56.5296H24.8002C24.94 56.533 25.0829 56.533 25.2226 56.533C25.3655 56.4482 25.2925 56.3057 25.2956 56.1937C25.2988 52.3932 25.2988 48.5926 25.2988 44.7921H25.302Z" fill="black"/>
<path d="M26.2958 35.1823C22.1388 35.0839 19.071 33.1768 16.5876 30.1025C15.0442 28.2192 15.0633 28.0393 16.6829 26.2917C18.7344 24.0895 21.0305 22.3046 23.9458 21.6089C26.8611 20.9336 29.5351 21.6089 32.0376 23.2174C33.9017 24.4084 35.4801 25.9558 36.8552 27.7407C37.1378 28.097 37.3823 28.4363 36.9854 28.9521C34.6321 32.0265 31.793 34.3102 28.0298 35.0228C27.3915 35.1212 26.7309 35.1416 26.299 35.1823H26.2958ZM26.1815 24.4084C24.1681 24.4288 22.5516 26.1356 22.5516 28.2565C22.5516 30.3773 24.2062 32.1249 26.2006 32.1045C28.2521 32.1045 29.9257 30.3196 29.8876 28.175C29.8685 26.0712 28.214 24.3847 26.1815 24.405V24.4084ZM32.1646 24.1505C32.1074 24.1913 32.0503 24.2286 31.9963 24.2693C33.0125 27.1061 33.1808 29.9057 31.8089 32.6814C33.6159 31.6702 35.064 30.262 36.2867 28.5755C36.3629 28.4567 36.2867 28.08 36.1565 27.9409C35.5531 27.2656 34.9529 26.5904 34.2923 25.9762C33.635 25.3212 32.8823 24.7444 32.1646 24.1505ZM20.2556 24.31C20.1984 24.2489 20.1254 24.1913 20.0682 24.1132C19.0901 25.026 18.0929 25.8981 17.1529 26.8516C15.9493 28.0834 15.9684 28.1208 17.0227 29.4509C17.9246 30.6013 18.9408 31.6532 20.2397 32.3862C18.7916 29.7088 18.9408 27.0077 20.2588 24.31H20.2556ZM23.3615 22.9425C23.1169 23.2988 22.8533 23.6958 22.6088 24.0725C23.0979 24.5747 23.6187 24.5747 24.1713 24.0725C23.9077 23.7162 23.6441 23.3599 23.3615 22.9425Z" fill="black"/>
<path d="M26.2769 31.1172C24.8097 31.0969 23.568 29.7871 23.587 28.26C23.6061 26.7127 24.8478 25.4028 26.2959 25.4232C27.7822 25.4436 28.9858 26.733 28.9858 28.2804C28.9858 29.8278 27.744 31.1376 26.2769 31.1172Z" fill="black"/>
</svg>
