<svg width="25" height="25" viewBox="0 0 25 25" fill="none" xmlns="http://www.w3.org/2000/svg">
<path d="M12.6623 0L12.8185 0.607913C13.8432 4.59763 14.3556 6.59249 15.5083 8.15642C16.0716 8.92055 16.7408 9.60058 17.4957 10.176C19.0409 11.3538 21.0273 11.8982 25 12.987V12.987L24.6984 13.0697C20.8588 14.122 18.9391 14.6481 17.4283 15.7723C16.6718 16.3353 15.9987 17.0025 15.429 17.7541C14.2915 19.2549 13.7484 21.1699 12.6623 25V25V25C11.5914 21.2235 11.056 19.3353 9.94417 17.8513C9.33963 17.0445 8.61654 16.3336 7.79943 15.743C6.29666 14.6567 4.39955 14.1536 0.605312 13.1475L0 12.987V12.987C4.22387 11.867 6.3358 11.3069 7.95666 10.0341C8.60559 9.52455 9.18895 8.93661 9.69345 8.28373C10.9536 6.65299 11.4971 4.53675 12.5842 0.304281L12.6623 0Z" fill="black"/>
</svg>
