<svg width="11" height="11" viewBox="0 0 11 11" fill="none" xmlns="http://www.w3.org/2000/svg">
<path id="Vector" d="M10.577 0.152607C10.4748 0.0850073 10.3605 0.0385902 10.2407 0.016008C10.1209 -0.00657421 9.99785 -0.00487911 9.87867 0.0209964C9.75949 0.046872 9.64647 0.096421 9.54609 0.166813C9.4457 0.237205 9.35991 0.32706 9.29361 0.431246L4.09376 8.59845L1.55786 6.20922C1.46839 6.12492 1.3635 6.05941 1.24919 6.01642C1.13487 5.97343 1.01336 5.9538 0.891599 5.95866C0.645691 5.96847 0.41368 6.07742 0.246607 6.26154C0.0795328 6.44567 -0.00891837 6.68988 0.000711425 6.94045C0.0103412 7.19103 0.117263 7.42744 0.297956 7.59769L3.62759 10.7346C3.62759 10.7346 3.72318 10.8184 3.76741 10.8477C3.86964 10.9154 3.98395 10.9618 4.10381 10.9845C4.22367 11.0071 4.34672 11.0054 4.46594 10.9795C4.58516 10.9536 4.69821 10.9041 4.79862 10.8336C4.89903 10.7632 4.98484 10.6733 5.05114 10.5691L10.8505 1.46038C10.9168 1.35622 10.9624 1.23977 10.9845 1.11767C11.0067 0.995568 11.005 0.870215 10.9796 0.748769C10.9542 0.627324 10.9056 0.512166 10.8365 0.409875C10.7675 0.307584 10.6793 0.220163 10.577 0.152607Z" fill="white"/>
</svg>
